<svg width="100" height="136" viewBox="0 0 100 136" fill="none" xmlns="http://www.w3.org/2000/svg">
<g filter="url(#filter0_dd)">
<path d="M45.0588 2C41.2941 2 30.3765 2.57852 16.8235 4.89259L9.29412 8.74939L6 13.0883V20.8019V35.2648L6.94118 67.5655L9.29412 81.0642C11.6471 90.7588 12.9647 89.9787 20.1176 100.778L45.0588 124.935C48.0706 126.864 53.8431 125.739 56.3529 124.935C59.8039 121.561 68.7765 112.594 77.0588 103.723L85.0588 94.0809L91.6471 82.9926C91.9123 80.483 93.8066 37.8968 94 35.2648V19.8377L90.7059 11.642L84.5882 6.33889L73.7647 3.4463L58.7059 2H51.6471H45.0588Z" fill="#1E1515"/>
<path d="M45.0588 2C41.2941 2 30.3765 2.57852 16.8235 4.89259L9.29412 8.74939L6 13.0883V20.8019V35.2648L6.94118 67.5655L9.29412 81.0642C11.6471 90.7588 12.9647 89.9787 20.1176 100.778L45.0588 124.935C48.0706 126.864 53.8431 125.739 56.3529 124.935C59.8039 121.561 68.7765 112.594 77.0588 103.723L85.0588 94.0809L91.6471 82.9926C91.9123 80.483 93.8066 37.8968 94 35.2648V19.8377L90.7059 11.642L84.5882 6.33889L73.7647 3.4463L58.7059 2H51.6471H45.0588Z" stroke="black"/>
</g>
<defs>
<filter id="filter0_dd" x="0.5" y="0.5" width="99" height="135" filterUnits="userSpaceOnUse" color-interpolation-filters="sRGB">
<feFlood flood-opacity="0" result="BackgroundImageFix"/>
<feColorMatrix in="SourceAlpha" type="matrix" values="0 0 0 0 0 0 0 0 0 0 0 0 0 0 0 0 0 0 127 0"/>
<feOffset dy="4"/>
<feGaussianBlur stdDeviation="2"/>
<feColorMatrix type="matrix" values="0 0 0 0 0 0 0 0 0 0 0 0 0 0 0 0 0 0 0.25 0"/>
<feBlend mode="overlay" in2="BackgroundImageFix" result="effect1_dropShadow"/>
<feColorMatrix in="SourceAlpha" type="matrix" values="0 0 0 0 0 0 0 0 0 0 0 0 0 0 0 0 0 0 127 0"/>
<feOffset dy="4"/>
<feGaussianBlur stdDeviation="2.5"/>
<feColorMatrix type="matrix" values="0 0 0 0 0 0 0 0 0 0 0 0 0 0 0 0 0 0 0.6 0"/>
<feBlend mode="normal" in2="effect1_dropShadow" result="effect2_dropShadow"/>
<feBlend mode="normal" in="SourceGraphic" in2="effect2_dropShadow" result="shape"/>
</filter>
</defs>
</svg>
